<svg width="291" height="57" viewBox="0 0 291 57" fill="none" xmlns="http://www.w3.org/2000/svg">
<path d="M50.1481 21.6365L50.2267 21.893L50.4839 21.9694L56.594 23.7836V32.4859L50.4839 34.3079L50.2272 34.3845L50.1487 34.6406C49.7217 36.0344 49.2938 37.3388 48.6447 38.5564L48.5177 38.7947L48.6472 39.0315L51.7655 44.7323L45.601 50.9213L39.9091 47.8801L39.6742 47.7546L39.439 47.8795C38.1638 48.5567 36.8678 49.2395 35.526 49.6478L35.2639 49.7276L35.1901 49.9914L33.368 56.5H24.6623L22.8301 49.9901L22.756 49.7269L22.4945 49.6473C21.4783 49.3377 20.4991 48.7937 19.5082 48.2431C19.1973 48.0704 18.8853 47.897 18.5707 47.7301L18.3332 47.604L18.0971 47.7327L12.3828 50.8467L6.17598 44.6911L9.21097 39.0099L9.33664 38.7747L9.21127 38.5393C9.17272 38.4669 9.1341 38.3945 9.09545 38.3221C8.4509 37.1138 7.80039 35.8943 7.41404 34.6326L7.33372 34.3704L7.06937 34.2972L0.5 32.4782V23.791L7.06986 21.9738L7.33431 21.9007L7.41465 21.6383C7.6131 20.9903 7.92759 20.3433 8.28665 19.6875C8.44976 19.3896 8.61931 19.0946 8.78991 18.7979C8.80679 18.7686 8.82368 18.7392 8.84057 18.7098C9.02702 18.3853 9.21391 18.0584 9.38674 17.7344L9.5141 17.4956L9.3838 17.2584L6.26649 11.5831L12.426 5.4406L18.1171 8.56885L18.3539 8.69903L18.5926 8.57223C19.8261 7.91685 21.134 7.40527 22.5062 6.98525L22.7632 6.90659L22.8394 6.64889L24.6571 0.5H33.3735L35.1883 6.64929L35.2644 6.90721L35.5216 6.98589C36.9003 7.40766 38.2024 7.88624 39.4301 8.53885L39.6684 8.66548L39.905 8.5359L45.5877 5.42381L51.7329 11.5724L48.5891 17.2527L48.4577 17.4901L48.5851 17.7296C49.2383 18.9573 49.727 20.2612 50.1481 21.6365ZM10.9214 28.1342C10.9214 38.1105 19.0232 46.1969 29.0157 46.1969C39.0058 46.1969 47.1082 38.1111 47.1082 28.1342C47.1082 18.1574 39.0078 10.0703 29.0157 10.0703C19.0231 10.0703 10.9214 18.1574 10.9214 28.1342Z" fill="white" stroke="white"/>
<path d="M26.3321 35.7334L26.355 35.7396C26.9746 35.9075 27.6127 35.5427 27.7809 34.9241L31.1088 22.6889C31.277 22.071 30.9116 21.4333 30.292 21.2654L30.2691 21.2592C29.6495 21.0913 29.0114 21.4561 28.8432 22.0747L25.5153 34.3099M26.3321 35.7334L26.4629 35.2508L26.4853 35.2569L26.4858 35.257C26.8398 35.3529 27.2029 35.1444 27.2984 34.7929L27.2984 34.7929L30.6263 22.5577L30.6264 22.5576C30.7218 22.2069 30.5147 21.8439 30.1615 21.748L30.1617 21.7481L30.2919 21.2655L30.1612 21.7479L30.1389 21.7419L30.1383 21.7418C29.7843 21.6458 29.4213 21.8544 29.3257 22.2058L29.3257 22.2059L25.9978 34.4411L25.5153 34.3099M26.3321 35.7334C25.7125 35.5655 25.3471 34.9284 25.5153 34.3099M26.3321 35.7334L26.4624 35.2507L26.4628 35.2508C26.1095 35.155 25.9022 34.7925 25.9978 34.4411L25.5153 34.3099" fill="white" stroke="white"/>
<path d="M17.8164 27.3252C17.1664 27.9732 17.1667 29.025 17.8161 29.6733L22.1482 33.9983C22.4064 34.256 22.4064 34.6736 22.1482 34.9314L22.1315 34.9481C21.8729 35.2063 21.4532 35.2063 21.1945 34.9481L16.0406 29.8027L15.2021 28.9656L15.2019 28.9654C14.9441 28.7084 14.9438 28.291 15.2021 28.0331L16.0406 27.196L21.1945 22.0507C21.4532 21.7925 21.8729 21.7925 22.1315 22.0507L22.1482 22.0674C22.4064 22.3252 22.4064 22.7427 22.1482 23.0005L17.8164 27.3252ZM17.8164 27.3252L18.1694 27.6793L17.8161 27.3254L17.8164 27.3252Z" fill="white" stroke="white"/>
<path d="M41.0528 27.196L41.8913 28.0331C42.1495 28.2909 42.1495 28.7085 41.8913 28.9663L41.0528 29.8033L35.8989 34.9487C35.6402 35.2069 35.2205 35.2069 34.9619 34.9487L34.9452 34.932C34.687 34.6742 34.687 34.2567 34.9452 33.9989L39.2773 29.674C39.9268 29.0255 39.9268 27.9739 39.2773 27.3254L34.9452 23.0005C34.687 22.7427 34.687 22.3252 34.9452 22.0674L34.9619 22.0507C35.2205 21.7925 35.6402 21.7925 35.8989 22.0507L41.0528 27.196Z" fill="white" stroke="white"/>
<mask id="path-5-inside-1_223_13" fill="white">
<path d="M89.0556 41.8519L83.5508 33.0511H80.2403V41.8519H74.0426V14.9501H83.6278C89.6715 14.9501 93.675 18.601 93.675 24.212C93.675 27.7861 91.9812 30.4763 89.1326 31.8598L95.5998 41.8519H89.0556V41.8519ZM80.2403 20.6379V27.7861H83.2429C85.7451 27.7861 87.4773 26.9022 87.4773 24.212C87.4773 21.5602 85.7451 20.6379 83.2429 20.6379H80.2403V20.6379ZM108.65 21.5218C113.192 21.5218 119.544 24.9422 118.273 33.9735H104.3C104.993 36.0488 106.802 37.1248 109.227 37.1248C111.691 37.1248 112.461 36.5868 113.846 36.0103L117.195 39.2385C115.425 40.9679 113.038 42.2362 108.996 42.2362C104.03 42.2362 98.1019 38.8158 98.1019 31.9366C98.1019 24.9422 104.107 21.5218 108.65 21.5218ZM108.65 26.71C106.917 26.71 105.146 27.7092 104.377 29.7076H112.884C112.268 27.7092 110.382 26.71 108.65 26.71V26.71ZM136.135 21.8677H142.217V41.8519H136.135V39.8534C135.865 40.5452 134.056 42.2362 130.977 42.2362C126.396 42.2362 121.122 38.9695 121.122 31.8213C121.122 24.9422 126.396 21.5218 130.977 21.5218C134.056 21.5218 135.865 23.2896 136.135 23.7124V21.8677V21.8677ZM131.862 36.8942C134.364 36.8942 136.404 35.1648 136.404 31.8213C136.404 28.5931 134.364 26.8637 131.862 26.8637C129.244 26.8637 127.012 28.6316 127.012 31.8213C127.012 35.1264 129.244 36.8942 131.862 36.8942ZM155.998 21.5218C159.655 21.5218 162.735 23.059 164.621 26.2873L160.002 28.4778C159.001 27.6324 158.192 26.8637 156.075 26.8637C153.766 26.8637 151.417 28.6316 151.417 31.8982C151.417 35.1264 153.766 36.8174 156.075 36.8174C158.192 36.8174 159.001 36.1256 160.002 35.2801L164.698 37.4707C162.735 40.6989 159.732 42.1593 155.998 42.1593C151.533 42.1593 145.528 38.9695 145.528 31.8982C145.528 24.9422 151.533 21.5218 155.998 21.5218ZM177.555 36.779C178.633 36.779 179.403 36.6252 180.25 36.3946V41.4291C179.403 41.8134 178.017 42.0824 175.977 42.0824C172.628 42.0824 169.818 40.9679 169.818 34.819V26.8637H167.008V21.8677H169.818V17.1791H175.9V21.8677H180.173V26.8637H175.9V34.819C175.9 35.7029 176.131 36.779 177.555 36.779V36.779ZM212.701 20.5995H201.769V25.7108H210.738V30.9759H201.769V41.8519H195.379V14.9501H212.701V20.5995V20.5995ZM224.789 21.5218C229.331 21.5218 235.336 24.9422 235.336 31.9366C235.336 38.9695 229.331 42.2362 224.789 42.2362C220.246 42.2362 214.241 38.9695 214.241 31.9366C214.241 24.9422 220.246 21.5218 224.789 21.5218ZM224.789 26.8637C222.479 26.8637 220.131 28.6316 220.131 31.9366C220.131 35.1264 222.479 36.8942 224.789 36.8942C227.098 36.8942 229.485 35.1264 229.485 31.9366C229.485 28.6316 227.098 26.8637 224.789 26.8637V26.8637ZM251.504 21.5602C252.043 21.5602 252.582 21.5602 253.082 21.6755V27.4786C252.621 27.3633 252.082 27.3633 251.697 27.3633C248.001 27.3633 245.037 30.0151 244.729 33.7045V41.8519H238.647V21.8677H244.729V26.7484C245.653 23.7508 247.963 21.5602 251.504 21.5602V21.5602ZM282.955 21.5602C287.227 21.5602 291 24.3273 291 31.0911V41.8519H284.918V31.2833C284.918 28.7469 283.84 26.8253 281.03 26.8253C278.682 26.8253 277.103 28.9006 276.641 30.7453V41.8519H270.559V31.2833C270.559 28.7469 268.981 26.8253 266.671 26.8253C264.169 26.8253 262.668 28.5163 262.283 30.7453V41.8519H256.201V21.8677H262.283V25.5186C262.36 24.5963 264.323 21.5602 268.249 21.5602C271.137 21.5602 273.908 23.0975 275.564 25.903C276.025 24.8269 278.335 21.5602 282.955 21.5602V21.5602Z"/>
</mask>
<path d="M89.0556 41.8519L83.5508 33.0511H80.2403V41.8519H74.0426V14.9501H83.6278C89.6715 14.9501 93.675 18.601 93.675 24.212C93.675 27.7861 91.9812 30.4763 89.1326 31.8598L95.5998 41.8519H89.0556V41.8519ZM80.2403 20.6379V27.7861H83.2429C85.7451 27.7861 87.4773 26.9022 87.4773 24.212C87.4773 21.5602 85.7451 20.6379 83.2429 20.6379H80.2403V20.6379ZM108.65 21.5218C113.192 21.5218 119.544 24.9422 118.273 33.9735H104.3C104.993 36.0488 106.802 37.1248 109.227 37.1248C111.691 37.1248 112.461 36.5868 113.846 36.0103L117.195 39.2385C115.425 40.9679 113.038 42.2362 108.996 42.2362C104.03 42.2362 98.1019 38.8158 98.1019 31.9366C98.1019 24.9422 104.107 21.5218 108.65 21.5218ZM108.65 26.71C106.917 26.71 105.146 27.7092 104.377 29.7076H112.884C112.268 27.7092 110.382 26.71 108.65 26.71V26.71ZM136.135 21.8677H142.217V41.8519H136.135V39.8534C135.865 40.5452 134.056 42.2362 130.977 42.2362C126.396 42.2362 121.122 38.9695 121.122 31.8213C121.122 24.9422 126.396 21.5218 130.977 21.5218C134.056 21.5218 135.865 23.2896 136.135 23.7124V21.8677V21.8677ZM131.862 36.8942C134.364 36.8942 136.404 35.1648 136.404 31.8213C136.404 28.5931 134.364 26.8637 131.862 26.8637C129.244 26.8637 127.012 28.6316 127.012 31.8213C127.012 35.1264 129.244 36.8942 131.862 36.8942ZM155.998 21.5218C159.655 21.5218 162.735 23.059 164.621 26.2873L160.002 28.4778C159.001 27.6324 158.192 26.8637 156.075 26.8637C153.766 26.8637 151.417 28.6316 151.417 31.8982C151.417 35.1264 153.766 36.8174 156.075 36.8174C158.192 36.8174 159.001 36.1256 160.002 35.2801L164.698 37.4707C162.735 40.6989 159.732 42.1593 155.998 42.1593C151.533 42.1593 145.528 38.9695 145.528 31.8982C145.528 24.9422 151.533 21.5218 155.998 21.5218ZM177.555 36.779C178.633 36.779 179.403 36.6252 180.25 36.3946V41.4291C179.403 41.8134 178.017 42.0824 175.977 42.0824C172.628 42.0824 169.818 40.9679 169.818 34.819V26.8637H167.008V21.8677H169.818V17.1791H175.9V21.8677H180.173V26.8637H175.9V34.819C175.9 35.7029 176.131 36.779 177.555 36.779V36.779ZM212.701 20.5995H201.769V25.7108H210.738V30.9759H201.769V41.8519H195.379V14.9501H212.701V20.5995V20.5995ZM224.789 21.5218C229.331 21.5218 235.336 24.9422 235.336 31.9366C235.336 38.9695 229.331 42.2362 224.789 42.2362C220.246 42.2362 214.241 38.9695 214.241 31.9366C214.241 24.9422 220.246 21.5218 224.789 21.5218ZM224.789 26.8637C222.479 26.8637 220.131 28.6316 220.131 31.9366C220.131 35.1264 222.479 36.8942 224.789 36.8942C227.098 36.8942 229.485 35.1264 229.485 31.9366C229.485 28.6316 227.098 26.8637 224.789 26.8637V26.8637ZM251.504 21.5602C252.043 21.5602 252.582 21.5602 253.082 21.6755V27.4786C252.621 27.3633 252.082 27.3633 251.697 27.3633C248.001 27.3633 245.037 30.0151 244.729 33.7045V41.8519H238.647V21.8677H244.729V26.7484C245.653 23.7508 247.963 21.5602 251.504 21.5602V21.5602ZM282.955 21.5602C287.227 21.5602 291 24.3273 291 31.0911V41.8519H284.918V31.2833C284.918 28.7469 283.84 26.8253 281.03 26.8253C278.682 26.8253 277.103 28.9006 276.641 30.7453V41.8519H270.559V31.2833C270.559 28.7469 268.981 26.8253 266.671 26.8253C264.169 26.8253 262.668 28.5163 262.283 30.7453V41.8519H256.201V21.8677H262.283V25.5186C262.36 24.5963 264.323 21.5602 268.249 21.5602C271.137 21.5602 273.908 23.0975 275.564 25.903C276.025 24.8269 278.335 21.5602 282.955 21.5602V21.5602Z" fill="white" stroke="white" stroke-width="2" mask="url(#path-5-inside-1_223_13)"/>
</svg>
