<svg width="58" height="57" viewBox="0 0 58 57" fill="none" xmlns="http://www.w3.org/2000/svg">
<path d="M50.1481 21.6365L50.2267 21.893L50.4839 21.9694L56.594 23.7836V32.4859L50.4839 34.3079L50.2272 34.3845L50.1487 34.6406C49.7217 36.0344 49.2938 37.3388 48.6447 38.5564L48.5177 38.7947L48.6472 39.0315L51.7655 44.7323L45.601 50.9213L39.9091 47.8801L39.6742 47.7546L39.439 47.8795C38.1638 48.5567 36.8678 49.2395 35.526 49.6478L35.2639 49.7276L35.1901 49.9914L33.368 56.5H24.6623L22.8301 49.9901L22.756 49.7269L22.4945 49.6473C21.4783 49.3377 20.4991 48.7936 19.5081 48.243C19.1973 48.0704 18.8853 47.897 18.5707 47.7301L18.3332 47.604L18.0971 47.7327L12.3828 50.8467L6.17598 44.6911L9.21097 39.0099L9.33664 38.7747L9.21127 38.5393C9.17272 38.4669 9.1341 38.3945 9.09545 38.3221C8.4509 37.1138 7.80039 35.8943 7.41404 34.6326L7.33372 34.3704L7.06937 34.2972L0.5 32.4782V23.791L7.06986 21.9738L7.33431 21.9007L7.41465 21.6383C7.6131 20.9903 7.92759 20.3433 8.28665 19.6875C8.44976 19.3896 8.61931 19.0946 8.78991 18.7979C8.80679 18.7686 8.82368 18.7392 8.84057 18.7098C9.02702 18.3853 9.21391 18.0584 9.38674 17.7344L9.5141 17.4956L9.3838 17.2584L6.26649 11.5831L12.426 5.4406L18.1171 8.56885L18.3539 8.69902L18.5926 8.57223C19.8261 7.91685 21.134 7.40527 22.5062 6.98525L22.7632 6.90659L22.8394 6.64889L24.6571 0.5H33.3735L35.1883 6.64929L35.2644 6.90721L35.5216 6.98589C36.9003 7.40766 38.2024 7.88624 39.4301 8.53885L39.6684 8.66548L39.905 8.5359L45.5877 5.42381L51.7329 11.5724L48.5891 17.2527L48.4577 17.4901L48.5851 17.7296C49.2383 18.9573 49.727 20.2612 50.1481 21.6365ZM10.9214 28.1342C10.9214 38.1105 19.0232 46.1969 29.0157 46.1969C39.0058 46.1969 47.1082 38.1111 47.1082 28.1342C47.1082 18.1574 39.0078 10.0703 29.0157 10.0703C19.0231 10.0703 10.9214 18.1574 10.9214 28.1342Z" fill="white" stroke="white"/>
<path d="M30.1389 21.7419L30.1383 21.7418C29.7843 21.6458 29.4213 21.8544 29.3257 22.2058L29.3257 22.2059L25.9978 34.4411C25.9978 34.4411 25.9978 34.4411 25.9978 34.4411C25.9023 34.7923 26.1093 35.1547 26.4624 35.2507L30.1389 21.7419ZM30.1389 21.7419L30.1612 21.7479C30.1613 21.748 30.1613 21.748 30.1614 21.748C30.5146 21.8439 30.7218 22.2069 30.6264 22.5576L30.6263 22.5577L27.2984 34.7929L27.2984 34.7929C27.2029 35.1444 26.8398 35.3529 26.4858 35.257L26.4853 35.2569L26.4629 35.2508L30.1389 21.7419Z" fill="white" stroke="white"/>
<path d="M17.8164 27.3252C17.1664 27.9732 17.1667 29.025 17.8161 29.6733L22.1482 33.9983C22.4064 34.256 22.4064 34.6736 22.1482 34.9314L22.1315 34.9481L22.4766 35.2937L22.1315 34.9481C21.8729 35.2063 21.4532 35.2063 21.1945 34.9481L16.0406 29.8027L15.2021 28.9656L15.2019 28.9654C14.9441 28.7084 14.9438 28.291 15.2021 28.0331L14.8573 27.6877L15.2021 28.0331L16.0406 27.196L21.1945 22.0507C21.4532 21.7925 21.8729 21.7925 22.1315 22.0507L22.1482 22.0674C22.4064 22.3252 22.4064 22.7427 22.1482 23.0005L17.8164 27.3252ZM17.8164 27.3252L18.1694 27.6793L17.8161 27.3254L17.8164 27.3252Z" fill="white" stroke="white"/>
<path d="M41.0528 27.196L41.8913 28.0331C42.1495 28.2909 42.1495 28.7085 41.8913 28.9663L41.0528 29.8033L35.8989 34.9487C35.6402 35.2069 35.2205 35.2069 34.9619 34.9487L34.9452 34.932L34.5919 35.2859L34.9452 34.932C34.687 34.6742 34.687 34.2567 34.9452 33.9989L39.2773 29.674C39.9268 29.0255 39.9268 27.9739 39.2773 27.3254L34.9452 23.0005C34.687 22.7427 34.687 22.3252 34.9452 22.0674L34.9619 22.0507C35.2205 21.7925 35.6402 21.7925 35.8989 22.0507L41.0528 27.196Z" fill="white" stroke="white"/>
</svg>
